<?xml version="1.0" encoding="UTF-8"?>
<svg xmlns="http://www.w3.org/2000/svg" xmlns:xlink="http://www.w3.org/1999/xlink" width="512" height="512" viewBox="0 0 48 60" version="1.1"><!-- Generator: Sketch 51.3 (57544) - http://www.bohemiancoding.com/sketch --><title>027 - Vedas</title><desc>Created with Sketch.</desc><defs/><g id="Page-1" stroke="none" stroke-width="1" fill="none" fill-rule="evenodd"><g id="027---Vedas" fill="#000000" fill-rule="nonzero"><path d="M45,0 L5,0 C2.23994685,0.00330611633 0.00330611633,2.23994685 0,5 L0,55 C0.00330611633,57.7600532 2.23994685,59.9966939 5,60 L47,60 C47.5522847,60 48,59.5522847 48,59 C48,58.4477153 47.5522847,58 47,58 L45,58 L45,52 C46.6568542,52 48,50.6568542 48,49 L48,3 C48,1.34314575 46.6568542,1.01453063e-16 45,0 Z M43,58 L5,58 C3.34314575,58 2,56.6568542 2,55 C2,53.3431458 3.34314575,52 5,52 L43,52 L43,58 Z M46,49 C46,49.5522847 45.5522847,50 45,50 L5,50 C3.91791431,49.9985511 2.86479922,50.3495895 2,51 L2,5 C2,3.34314575 3.34314575,2 5,2 L45,2 C45.5522847,2 46,2.44771525 46,3 L46,49 Z" id="Shape"/><path d="M7,4 C6.44771525,4 6,4.44771525 6,5 L6,47 C6,47.5522847 6.44771525,48 7,48 C7.55228475,48 8,47.5522847 8,47 L8,5 C8,4.44771525 7.55228475,4 7,4 Z" id="Shape"/><path d="M6,56 L40,56 C40.5522847,56 41,55.5522847 41,55 C41,54.4477153 40.5522847,54 40,54 L6,54 C5.44771525,54 5,54.4477153 5,55 C5,55.5522847 5.44771525,56 6,56 Z" id="Shape"/><path d="M42,4 L12,4 C10.8954305,4 10,4.8954305 10,6 L10,46 C10,47.1045695 10.8954305,48 12,48 L42,48 C43.1045695,48 44,47.1045695 44,46 L44,6 C44,4.8954305 43.1045695,4 42,4 Z M12,46 L12,6 L42,6 L42,46 L12,46 Z" id="Shape"/><path d="M36,16 C35.4477153,16 35,16.4477153 35,17 L35,25 L28,25 L28,17 C28,16.4477153 27.5522847,16 27,16 L18,16 C17.4477153,16 17,16.4477153 17,17 C17,17.5522847 17.4477153,18 18,18 L26,18 L26,25 L18,25 C17.4477153,25 17,25.4477153 17,26 L17,35 C17,35.5522847 17.4477153,36 18,36 C18.5522847,36 19,35.5522847 19,35 L19,27 L26,27 L26,35 C26,35.5522847 26.4477153,36 27,36 L36,36 C36.5522847,36 37,35.5522847 37,35 C37,34.4477153 36.5522847,34 36,34 L28,34 L28,27 L36,27 C36.5522847,27 37,26.5522847 37,26 L37,17 C37,16.4477153 36.5522847,16 36,16 Z" id="Shape"/><circle id="Oval" cx="22" cy="22" r="1"/><circle id="Oval" cx="32" cy="22" r="1"/><circle id="Oval" cx="32" cy="30" r="1"/><circle id="Oval" cx="22" cy="30" r="1"/></g></g></svg>
