<svg height="512" viewBox="0 0 60 53" width="512" xmlns="http://www.w3.org/2000/svg"><g id="Page-1" fill="none" fill-rule="evenodd"><g id="010---Map-Locations" fill="rgb(0,0,0)" fill-rule="nonzero"><path id="Shape" d="m2.522 44.78c-.02063563.0404779-.03867214.0822291-.054.125l-1.925 5.408c-.10027854.2807659-.13449751.5808663-.1.877.00088274.0287663.00321906.0574696.007.086.007.051 0 .1.012.155.20264624.918273 1.01763554 1.5713467 1.958 1.569h55.16c.6507165-.0002118 1.2606502-.3169814 1.6350791-.8491797.3744288-.5321983.4665378-1.2132842.2469209-1.8258203l-3.28-9.2c2.4024732-3.257003 3.7363434-7.1786092 3.818-11.225-.0481638-4.6250624-2.980646-8.7273867-7.3412058-10.2698003-4.3605599-1.5424137-9.2202486-.1963297-12.1657942 3.3698003h-2.683c2.507-2.8 5.19-7 5.19-12.2-.0000001-5.52284742-4.4771526-9.99999979-10-9.99999979s-9.9999999 4.47715237-10 9.99999979c0 5.2 2.683 9.4 5.19 12.2h-6.368c-1.0168079-5.5868248-6.1191615-9.4814469-11.7763598-8.9888854-5.65719834.4925614-10.00968152 5.2103982-10.0456402 10.8888854.1428589 4.7318328 1.9239058 9.2673347 5.039 12.832zm6.516-3.029-3.907 1.671 1.423-3.985c.78369942.8175601 1.61302451 1.5901278 2.484 2.314zm11.442-9.711 5.514 2.379-9.3 4.012-.233-.1c1.6529423-1.8795522 3.0083173-4.0011408 4.019-6.291zm-5.472 7.845 1.288.553c.2519755.109378.5380245.109378.79 0l11.829-5.1c.3662597-.158226.6034196-.5190242.6034196-.918s-.2371599-.759774-.6034196-.918l-7.741-3.34c.2746717-.8722129.4822764-1.764144.621-2.668l12.237 5.284c.2527492.1089993.5392508.1089993.792 0l3.246-1.4c.0809959.9233557.2348077 1.8388701.46 2.738l-13.376 5.756c-.3662597.158226-.6034196.5190242-.6034196.918s.2371599.759774.6034196.918l21.524 9.292h-6.755l-19.866-8.578c-.2530373-.109287-.5399627-.109287-.793 0l-16.295 7.038 1.231-3.468 7.189-3.073c.0185124-.0110753.0362228-.0234392.053-.037.040794-.0154192.0802588-.0341482.118-.056 1.231256-.8800119 2.3848119-1.8639469 3.448-2.941zm19.868 11.115h-30.418l15.2-6.567zm22.7 0h-5.851l-23.648-10.208 11.047-4.752c2.624 7.134 8.976 11.56 9.312 11.786.3401201.2323003.7878799.2323003 1.128 0 1.9159406-1.3857046 3.6516583-3.0048567 5.167-4.82zm-8.576-30c4.9405012-.0216164 8.9664156 3.9595657 9 8.9 0 8.225-6.945 14.251-9 15.853-2.055-1.6-9-7.628-9-15.853.0335844-4.9404343 4.0594988-8.9216164 9-8.9zm-10.965 8.217-3.6 1.554-12.449-5.371c0-.133.01-.264.011-.4h8.174c.7155665.6585787 1.473524 1.2695546 2.269 1.829.3383157.2286765.7816843.2286765 1.12 0 .795476-.5594454 1.5534335-1.1704213 2.269-1.829h3.359c-.6697081 1.3116259-1.0621895 2.7470936-1.153 4.217zm-5.035-26.217c4.3607541-.0494877 7.9390907 3.43939045 8 7.8 0 7.187-6.1 12.479-8 13.956-1.9-1.477-8-6.769-8-13.956.0609093-4.36060955 3.6392459-7.8494877 8-7.8zm-22 13c4.9405012-.0216164 8.9664156 3.9595657 9 8.9 0 8.225-6.945 14.251-9 15.853-2.055-1.6-9-7.628-9-15.853.03358439-4.9404343 4.05949884-8.9216164 9-8.9z"/><path id="Shape" d="m17 25c0-3.3137085-2.6862915-6-6-6s-6 2.6862915-6 6 2.6862915 6 6 6c3.3123376-.0033074 5.9966926-2.6876624 6-6zm-10 0c0-2.209139 1.790861-4 4-4s4 1.790861 4 4-1.790861 4-4 4c-1.06086596 0-2.07828161-.4214274-2.82842712-1.1715729-.75014552-.7501455-1.17157288-1.7675611-1.17157288-2.8284271z"/><path id="Shape" d="m38 11c0-2.76142375-2.2385763-5-5-5s-5 2.23857625-5 5c0 2.7614237 2.2385763 5 5 5 2.7600532-.0033061 4.9966939-2.2399468 5-5zm-8 0c0-1.65685425 1.3431458-3 3-3s3 1.34314575 3 3c0 1.6568542-1.3431458 3-3 3s-3-1.3431458-3-3z"/><path id="Shape" d="m49 36c3.3137085 0 6-2.6862915 6-6s-2.6862915-6-6-6-6 2.6862915-6 6c.0033074 3.3123376 2.6876624 5.9966926 6 6zm0-10c2.209139 0 4 1.790861 4 4s-1.790861 4-4 4-4-1.790861-4-4 1.790861-4 4-4z"/></g></g></svg>