<svg height="512pt" viewBox="-106 0 512 512" width="512pt" xmlns="http://www.w3.org/2000/svg"><path d="m240 236v-66c0-38.597656-31.402344-70-70-70h-40c-38.597656 0-70 31.402344-70 70v66c0 16.542969 13.457031 30 30 30h10v116c0 16.542969 13.457031 30 30 30 7.457031 0 14.5-2.707031 20.011719-7.65625 5.308593 4.757812 12.316406 7.65625 19.988281 7.65625 16.574219 0 30-13.425781 30-30v-116h10c16.542969 0 30-13.457031 30-30zm-50-76c-5.523438 0-10 4.476562-10 10v212c0 5.519531-4.480469 10-10 10-5.515625 0-10-4.484375-10-10v-126c0-5.523438-4.476562-10-10-10s-10 4.476562-10 10v126c0 5.519531-4.480469 10-10 10-5.515625 0-10-4.484375-10-10v-212c0-5.523438-4.476562-10-10-10s-10 4.476562-10 10v76h-10c-5.515625 0-10-4.484375-10-10v-66c0-27.570312 22.429688-50 50-50h40c27.570312 0 50 22.429688 50 50v66c0 5.515625-4.484375 10-10 10h-10v-76c0-5.523438-4.476562-10-10-10zm0 0"/><path d="m200 50c0-27.570312-22.429688-50-50-50s-50 22.429688-50 50 22.429688 50 50 50 50-22.429688 50-50zm-50 30c-16.542969 0-30-13.457031-30-30s13.457031-30 30-30 30 13.457031 30 30-13.457031 30-30 30zm0 0"/><path d="m150 432c-5.523438 0-10 4.476562-10 10v60c0 5.523438 4.476562 10 10 10s10-4.476562 10-10v-60c0-5.523438-4.476562-10-10-10zm0 0"/><path d="m70 352h-60c-5.523438 0-10 4.476562-10 10s4.476562 10 10 10h60c5.523438 0 10-4.476562 10-10s-4.476562-10-10-10zm0 0"/><path d="m290 352h-60c-5.523438 0-10 4.476562-10 10s4.476562 10 10 10h60c5.523438 0 10-4.476562 10-10s-4.476562-10-10-10zm0 0"/></svg>