<svg height="512" viewBox="0 0 512 512" width="512" xmlns="http://www.w3.org/2000/svg"><g id="outline"><path d="m490.062 88.271-120-32a7.971 7.971 0 0 0 -4.26.037l-109.802 31.372-39.863-11.388c-.678-1.416-1.39-2.819-2.158-4.2a79.249 79.249 0 0 0 -66.987-41.161c-1.987-.067-3.995-.067-5.986 0a79.249 79.249 0 0 0 -66.985 41.162q-.736 1.322-1.415 2.668l-50.667 13.51a8 8 0 0 0 -5.939 7.729v320a8 8 0 0 0 10.062 7.729l117.864-31.429 109.874 31.392a7.746 7.746 0 0 0 4.39-.019l.006.019 109.877-31.392 117.865 31.43a8 8 0 0 0 10.062-7.73v-320a8 8 0 0 0 -5.938-7.729zm-226.062 214.511a7.985 7.985 0 0 0 0-13.564v-187.183l96-27.43v57.176a34.99 34.99 0 0 0 0 66.438v74.437a47.863 47.863 0 0 0 -19.014 7.666 48 48 0 0 0 18.06 86.834c.318.061.636.1.954.158v10.65l-96 27.429zm98.031 48.656a32 32 0 0 1 -12.04-57.89 32 32 0 1 1 12.04 57.889zm8.969-167.438a19 19 0 1 1 19-19 19.021 19.021 0 0 1 -19 19zm-229.457-137.078q1.224-.04 2.457-.041t2.454.041a63.38 63.38 0 0 1 53.546 32.952c12.086 21.714 10.3 49.339-4.554 70.377l-51.446 72.872-51.445-72.872c-14.855-21.038-16.64-48.663-4.555-70.377a63.379 63.379 0 0 1 53.543-32.952zm2.457 265.078a19 19 0 1 1 19-19 19.021 19.021 0 0 1 -19 19zm-112-209.854 34.039-9.076a83.75 83.75 0 0 0 13.444 66.409l56.517 80.055v19.4a34.992 34.992 0 0 0 0 68.134v50.787l-104 27.732zm216 303.254-96-27.429v-50.9a34.992 34.992 0 0 0 0-68.134v-19.4l56.517-80.055a83.808 83.808 0 0 0 13.783-64.789l25.7 7.341zm232 .192-104-27.738v-10.508a48.009 48.009 0 0 0 .954-94.5c-.318-.061-.636-.1-.954-.157v-73.052a35 35 0 0 0 0-69.274v-55.95l104 27.733z"/><path d="m144 153.126a35 35 0 1 0 -35-35 35.04 35.04 0 0 0 35 35zm0-54a19 19 0 1 1 -19 19 19.021 19.021 0 0 1 19-19z"/><path d="m288.46 285.59-.57.33a8 8 0 1 0 7.91 13.91c.38-.21.76-.44 1.13-.67a8 8 0 1 0 -8.47-13.57z"/><path d="m304 221.11a8 8 0 0 0 -8 8v.99a8 8 0 1 0 16 0v-.99a8 8 0 0 0 -8-8z"/><path d="m304 254.72a8 8 0 0 0 -8 8v.99a8 8 0 1 0 16 0v-.99a8 8 0 0 0 -8-8z"/><path d="m323 176.79a8 8 0 1 0 -4.97-15.2c-.42.13-.84.28-1.25.43a8 8 0 0 0 2.81 15.5 8.133 8.133 0 0 0 2.8-.51c.2-.08.41-.15.61-.22z"/><path d="m304 187.5a8 8 0 0 0 -8 8v.99a8 8 0 0 0 16 0v-.99a8 8 0 0 0 -8-8z"/><path d="m192.55 288h-.99a8 8 0 0 0 0 16h.99a8 8 0 0 0 0-16z"/><path d="m420.23 176h.99a8 8 0 0 0 0-16h-.99a8 8 0 0 0 0 16z"/><path d="m453.84 176h.99a8 8 0 0 0 0-16h-.99a8 8 0 1 0 0 16z"/><path d="m217.17 296a8 8 0 0 0 8 8h.99a8 8 0 0 0 0-16h-.99a8 8 0 0 0 -8 8z"/><path d="m91.72 288h-.99a8 8 0 0 0 0 16h.99a8 8 0 1 0 0-16z"/><path d="m58.11 288h-.99a8 8 0 0 0 0 16h.99a8 8 0 1 0 0-16z"/><path d="m387.838 306.493a8 8 0 0 0 -6.612-3.5h-.079l-28.843.281a8 8 0 0 0 .077 16h.079l16.844-.165-6.326 15.612a8 8 0 1 0 14.828 6.009l10.834-26.73a8 8 0 0 0 -.802-7.507z"/></g></svg>