<svg height="511pt" viewBox="-91 0 511 511.997" width="511pt" xmlns="http://www.w3.org/2000/svg"><path d="m278.960938 277.171875-21.914063-6.261719c-.007813 0-.015625-.003906-.027344-.007812l-39.34375-11.238282c27.839844-17.441406 46.394531-48.386718 46.394531-83.589843v-20.964844c20.375-33.558594 22.242188-70.296875 5.101563-100.839844-19.066406-33.984375-57.824219-54.269531-103.675781-54.269531-20.160156 0-39.242188 4-55.953125 11.632812-.351563.132813-.699219.292969-1.039063.472657-3.796875 1.777343-7.46875 3.738281-10.992187 5.890625-4.714844 2.875-6.207031 9.03125-3.328125 13.746094 2.875 4.710937 9.027344 6.203124 13.742187 3.328124.753907-.460937 1.523438-.898437 2.292969-1.339843l27.089844 36.035156c-1.167969 3.699219-1.804688 7.691406-1.804688 11.855469 0 6.671875 1.640625 12.90625 4.476563 18.203125l-59.65625 38.371093c-7.378907-14.226562-10.824219-29.003906-10.011719-43.226562.3125-5.515625-3.902344-10.238281-9.417969-10.554688-5.527343-.332031-10.238281 3.902344-10.550781 9.414063-1.167969 20.484375 4.574219 41.609375 16.59375 61.277344l-.011719 20.964843c0 35.203126 18.554688 66.148438 46.394531 83.589844l-39.34375 11.238282c-.007812.003906-.019531.007812-.03125.011718l-21.910156 6.257813c-30.824218 8.808593-51.535156 34.917969-51.535156 64.972656v159.855469c0 5.523437 4.476562 10 10 10h309.996094c5.523437 0 10-4.476563 10-10v-159.851563c0-30.054687-20.710938-56.164062-51.535156-64.972656zm-27.230469-213.117187c12.101562 21.566406 11.96875 47.40625-.078125 72.125l-60.367188-36.851563c2.671875-5.1875 4.214844-11.242187 4.214844-17.707031 0-4.160156-.636719-8.15625-1.804688-11.855469l27.164063-36.128906c13.140625 7.460937 23.773437 17.765625 30.871094 30.417969zm-96.230469 17.566406c0-7.824219 4.675781-14.683594 10-14.683594 5.328125 0 10 6.859375 10 14.683594 0 7.824218-4.671875 14.683594-10 14.683594-5.324219 0-10-6.863282-10-14.683594zm9.996094-61.621094c13.023437 0 25.320312 1.886719 36.5 5.445312l-20.300782 27c-4.675781-3.480468-10.234374-5.507812-16.195312-5.507812s-11.515625 2.027344-16.191406 5.507812l-20.257813-26.945312c11.269531-3.617188 23.566407-5.5 36.445313-5.5zm-78.570313 156.078125.011719-18.351563 67.914062-43.6875c3.3125 1.460938 6.898438 2.265626 10.648438 2.265626 3.9375 0 7.691406-.886719 11.140625-2.488282l67.429687 41.164063v21.09375c0 32.652343-20.03125 60.710937-48.445312 72.554687-.367188.117188-.726562.265625-1.074219.425782-8.996093 3.589843-18.792969 5.589843-29.054687 5.589843-10.261719 0-20.0625-2-29.058594-5.59375-.339844-.15625-.6875-.296875-1.046875-.414062-28.425781-11.835938-48.464844-39.898438-48.464844-72.558594zm68.570313 98.0625v217.859375h-68.566406v-203.996094l48.101562-13.746094c1.898438-.539062 3.53125-1.609374 4.769531-3.019531 5.082031 1.375 10.324219 2.359375 15.695313 2.902344zm-134.996094 68.003906c0-21.03125 14.878906-39.414062 37.03125-45.742187l9.398438-2.683594v198.28125h-46.433594v-149.855469zm289.996094 149.855469h-46.429688v-30c0-5.523438-4.476562-10-10-10-5.523437 0-10 4.476562-10 10v30h-68.570312v-217.859375c5.375-.546875 10.617187-1.527344 15.699218-2.902344 1.238282 1.410157 2.871094 2.480469 4.769532 3.019531l48.101562 13.746094v93.996094c0 5.523438 4.476563 10 10 10 5.523438 0 10-4.476562 10-10v-88.28125l9.398438 2.683594c22.152344 6.328125 37.03125 24.710937 37.03125 45.742187zm0 0"/><path d="m136.3125 217.992188c7.796875 7.796874 18.160156 12.089843 29.183594 12.089843 11.027344 0 21.390625-4.292969 29.1875-12.089843 3.902344-3.90625 3.902344-10.234376 0-14.140626-3.90625-3.90625-10.238282-3.90625-14.144532 0-4.015624 4.019532-9.359374 6.230469-15.039062 6.230469-5.683594 0-11.027344-2.214843-15.042969-6.230469-3.90625-3.90625-10.238281-3.90625-14.144531 0s-3.90625 10.238282 0 14.140626zm0 0"/><path d="m142.246094 166.128906c0-5.523437-4.476563-10-10-10-5.519532 0-10 4.476563-10 10v.007813c0 5.519531 4.480468 9.996093 10 9.996093 5.523437 0 10-4.484374 10-10.003906zm0 0"/><path d="m198.746094 176.132812c5.523437 0 10-4.484374 10-10.003906 0-5.523437-4.476563-10-10-10-5.519532 0-10 4.476563-10 10v.007813c0 5.519531 4.480468 9.996093 10 9.996093zm0 0"/><path d="m165.496094 147.40625c5.523437 0 10-4.480469 10-10.003906 0-5.523438-4.476563-10-10-10-5.519532 0-10 4.480468-10 10v.007812c0 5.523438 4.480468 9.996094 10 9.996094zm0 0"/><path d="m125.496094 302.863281v.007813c0 5.519531 4.476562 9.996094 10 9.996094 5.523437 0 10-4.480469 10-10.003907 0-5.523437-4.476563-10-10-10-5.523438 0-10 4.476563-10 10zm0 0"/><path d="m135.496094 372.867188c-5.523438 0-10 4.476562-10 10v.003906c0 5.523437 4.476562 10 10 10 5.523437 0 10-4.484375 10-10.003906 0-5.523438-4.476563-10-10-10zm0 0"/><path d="m135.496094 452.867188c-5.523438 0-10 4.476562-10 10v.007812c0 5.523438 4.476562 9.996094 10 9.996094 5.523437 0 10-4.480469 10-10.003906 0-5.523438-4.476563-10-10-10zm0 0"/><path d="m67.164062 62.992188c1.800782 1.347656 3.902344 2 5.992188 2 3.039062 0 6.042969-1.382813 8.007812-4l.003907-.007813c3.3125-4.417969 2.417969-10.683594-2-13.996094s-10.691407-2.414062-14.003907 2.003907c-3.3125 4.417968-2.417968 10.6875 2 14zm0 0"/><path d="m254.066406 412c-5.523437 0-10 4.480469-10 10.003906 0 5.523438 4.476563 10 10 10 5.523438 0 10-4.480468 10-10v-.007812c0-5.523438-4.476562-9.996094-10-9.996094zm0 0"/></svg>