<svg height="512pt" viewBox="0 -83 512 512" width="512pt" xmlns="http://www.w3.org/2000/svg"><path d="m289.589844 338.519531.007812-.003906c15.953125 4.78125 32.554688 7.195313 49.625 7.195313 95.269532 0 172.777344-77.503907 172.777344-172.773438s-77.507812-172.777344-172.777344-172.777344c-26.917968 0-52.714844 6.027344-76.671875 17.914063l-.003906.003906c-21.445313 10.640625-40.160156 25.359375-55.621094 43.746094l-.015625.023437c-26.09375 31.039063-40.460937 70.488282-40.460937 111.085938 0 28.074218 6.863281 55.585937 19.714843 80.140625.507813-.085938-.507812.097656 0 0 18.949219-4.234375 40.570313-15.363281 52.394532-32.75-6.914063-14.691407-10.628906-30.871094-10.628906-47.390625 0-30.953125 13.054687-60.757813 35.8125-81.773438 15.363281-14.1875 34.296874-23.726562 54.757812-27.582031 6.816406-1.285156 13.785156-1.9375 20.722656-1.9375 61.367188 0 111.292969 49.925781 111.292969 111.292969 0 60.4375-48.417969 109.773437-108.503906 111.257812-8.03125 17.203125-33.894531 45.816406-52.421875 54.328125zm0 0"/><path d="m222.445312 7.203125-.007812.003906c-15.953125-4.785156-32.554688-7.20312475-49.625-7.207031-95.269531-.0195312-172.7929688 77.46875-172.8125 172.738281s77.46875 172.792969 172.738281 172.8125c26.917969.003907 52.71875-6.015625 76.679688-17.898437 21.449219-10.636719 40.167969-25.355469 55.628906-43.738282l.019531-.019531c26.097656-31.035156 40.476563-70.484375 40.484375-111.082031.007813-28.070312-6.851562-55.582031-19.695312-80.144531-.507813.085937.503906-.09375 0 0-18.953125 4.230469-40.574219 15.355469-52.402344 32.742187 6.90625 14.691406 10.621094 30.875 10.617187 47.390625-.007812 30.953125-13.066406 60.753907-35.828124 81.765625-15.367188 14.183594-34.304688 23.71875-54.769532 27.570313-6.8125 1.285156-13.785156 1.933593-20.722656 1.933593-61.367188-.015624-111.28125-49.953124-111.265625-111.320312.011719-60.433594 48.441406-109.761719 108.527344-111.234375 8.035156-17.195313 33.90625-45.804687 52.433593-54.3125zm0 0"/></svg>