<?xml version="1.0" encoding="iso-8859-1"?>
<!-- Generator: Adobe Illustrator 19.0.0, SVG Export Plug-In . SVG Version: 6.00 Build 0)  -->
<svg version="1.1" id="Capa_1" xmlns="http://www.w3.org/2000/svg" xmlns:xlink="http://www.w3.org/1999/xlink" x="0px" y="0px"
	 viewBox="0 0 512.001 512.001" style="enable-background:new 0 0 512.001 512.001;" xml:space="preserve">
<g>
	<g>
		<path d="M226.659,0c-14.422,0-27.556,5.594-37.367,14.716c-1.449-0.794-2.982-1.478-4.6-2.023
			c-14.921-5.029-31.141,3.021-36.168,17.936c-2.585,7.674-4.556,102.924-4.556,102.924s33.43-45.438,36.234-49.349
			c9.742,15.407,26.919,25.668,46.457,25.668c30.291,0,54.936-24.644,54.936-54.936S256.95,0,226.659,0z M226.659,79.735
			c-13.674,0-24.8-11.125-24.8-24.799c0-2.063,0.257-4.067,0.734-5.983c0.01-0.029,0.024-0.063,0.034-0.091
			c0.218-0.648,0.403-1.299,0.573-1.951c3.344-9.746,12.593-16.773,23.459-16.773c13.673,0,24.799,11.125,24.799,24.799
			C251.458,68.611,240.333,79.735,226.659,79.735z"/>
	</g>
</g>
<g>
	<g>
		<path d="M368.033,283.354c0-38.677-25.715-71.46-60.947-82.146c0.895-3.145,1.35-6.34,1.37-9.599
			c0.071-10.782-4.735-21.092-14.285-30.643l-0.836-0.836l-48.017-34.921h-4.9c-35.485,0-64.858,26.631-68.331,62.035
			l-19.407,210.559h57.988v114.199h30.137v-114.2h87.513l-7.081-37.984C349.688,345.35,368.033,316.072,368.033,283.354z
			 M299.517,336.294l-12.557,4.101l5.085,27.27H185.724l16.367-177.566c0.659-6.722,2.997-12.878,6.568-18.084v39.071
			c0,47.559,38.692,86.25,86.25,86.25h15.957v-30.137h-15.957c-30.941,0-56.113-25.173-56.113-56.113v-53.356l34.824,25.326
			c3.054,3.232,4.716,6.175,4.701,8.355c-0.012,1.812-1.17,5.086-6.622,10.397l-26.55,25.863h37.065
			c30.703,0,55.683,24.979,55.683,55.684C337.896,307.522,322.473,328.797,299.517,336.294z"/>
	</g>
</g>
<g>
</g>
<g>
</g>
<g>
</g>
<g>
</g>
<g>
</g>
<g>
</g>
<g>
</g>
<g>
</g>
<g>
</g>
<g>
</g>
<g>
</g>
<g>
</g>
<g>
</g>
<g>
</g>
<g>
</g>
</svg>
