<svg height="476pt" viewBox="0 -2 476.88108 476" width="476pt" xmlns="http://www.w3.org/2000/svg" xmlns:xlink="http://www.w3.org/1999/xlink"><linearGradient id="a"><stop offset="0" stop-color="#fff33b"/><stop offset=".014" stop-color="#fee72e"/><stop offset=".042" stop-color="#fed51b"/><stop offset=".07" stop-color="#fdca10"/><stop offset=".1" stop-color="#fdc70c"/><stop offset=".4" stop-color="#f3903f"/><stop offset=".8" stop-color="#ed683c"/><stop offset="1" stop-color="#e93e3a"/></linearGradient><linearGradient id="b" gradientUnits="userSpaceOnUse" x1="240" x2="240" xlink:href="#a" y1="-14.126934" y2="506.761066"/><linearGradient id="c" gradientUnits="userSpaceOnUse" x1="200" x2="200" xlink:href="#a" y1="-14.126934" y2="506.761066"/><linearGradient id="d" gradientUnits="userSpaceOnUse" x1="280" x2="280" xlink:href="#a" y1="-14.126934" y2="506.761066"/><linearGradient id="e" gradientUnits="userSpaceOnUse" x1="238.44" x2="238.44" xlink:href="#a" y1="-14.126934" y2="506.761066"/><path d="m107.71875 167.191406c2.996094 1.898438 6.878906 1.597656 9.546875-.734375l26.734375-23.390625v137.367188c0 4.417968 3.582031 8 8 8h176c4.417969 0 8-3.582032 8-8v-137.367188l26.734375 23.390625c2.671875 2.335938 6.558594 2.632813 9.550781.734375 2.996094-1.898437 4.382813-5.539062 3.410156-8.949218l-16-56c-.433593-1.511719-1.300781-2.859376-2.496093-3.882813l-112-96c-2.992188-2.558594-7.40625-2.558594-10.398438 0l-112 96c-1.195312 1.023437-2.0625 2.371094-2.496093 3.882813l-16 56c-.972657 3.410156.417968 7.054687 3.414062 8.949218zm148.28125 105.242188h-32v-48h32zm64 0h-48v-56c0-4.417969-3.582031-8-8-8h-48c-4.417969 0-8 3.582031-8 8v56h-48v-143.367188l80-70 80 70zm-184.96875-163.496094 104.96875-89.96875 104.96875 89.96875 7.886719 27.617188-107.589844-94.144532c-3.015625-2.636718-7.515625-2.636718-10.53125 0l-107.589844 94.144532zm0 0" fill="url(#b)"/><path d="m216 144.433594h-32c-4.417969 0-8 3.582031-8 8v32c0 4.417968 3.582031 8 8 8h32c4.417969 0 8-3.582032 8-8v-32c0-4.417969-3.582031-8-8-8zm-8 32h-16v-16h16zm0 0" fill="url(#c)"/><path d="m264 192.433594h32c4.417969 0 8-3.582032 8-8v-32c0-4.417969-3.582031-8-8-8h-32c-4.417969 0-8 3.582031-8 8v32c0 4.417968 3.582031 8 8 8zm8-32h16v16h-16zm0 0" fill="url(#d)"/><path d="m467.496094 236.929688c-12.417969-12.398438-32.5-12.484376-45.023438-.191407l-106.945312 99.648438c-5.679688-9.84375-16.164063-15.917969-27.527344-15.953125h-140.601562c-17.179688 1.140625-33.910157 5.972656-49.054688 14.167968l-4.0625 1.832032h-30.28125v-32c0-4.417969-3.582031-8-8-8h-48c-4.417969 0-8 3.582031-8 8v160c0 4.417968 3.582031 8 8 8h48c4.417969 0 8-3.582032 8-8v-16h205.679688c18.976562.042968 37.191406-7.4375 50.664062-20.800782l147.152344-145.464843c6.007812-5.992188 9.386718-14.132813 9.386718-22.617188 0-8.488281-3.378906-16.628906-9.386718-22.621093zm-419.496094 219.503906h-32v-144h32zm408.214844-185.601563-147.109375 145.433594c-10.488281 10.390625-24.664063 16.203125-39.425781 16.167969h-205.679688v-80h32c1.117188 0 2.226562-.234375 3.246094-.6875l5.699218-2.5625c13.097657-7.183594 27.5625-11.53125 42.453126-12.75h140.601562c8.835938 0 16 7.164062 16 16 0 8.835937-7.164062 16-16 16h-80v16h80c16.925781-.042969 30.882812-13.28125 31.816406-30.183594l113.785156-106c6.300782-5.820312 16.074219-5.632812 22.148438.425781 6.074219 6.058594 6.289062 15.828125.488281 22.148438zm0 0" fill="url(#e)"/></svg>