<svg id="Layer_1" data-name="Layer 1" xmlns="http://www.w3.org/2000/svg" viewBox="0 0 417.69 31.31"><defs><style>.cls-1{fill:#038c01;}</style></defs><title>1._green</title><path class="cls-1" d="M292.46,296.8a27.08,27.08,0,0,1-15-2.08c-4.73-2.05-9.06-5-13.84-6.92s-10.31-2.89-15-.84a30.22,30.22,0,0,1,32.95.47c4.52,3.14,10.17,8.74,15.62,8-.56.34-1.92.68-2.48,1C294.63,296.48,293,296.71,292.46,296.8Z" transform="translate(-111.14 -276.53)"/><path class="cls-1" d="M306.77,291.56c-3.82.91-8.28.56-11.06-2.22-1.1-1.1-1.88-2.51-3.12-3.45-1.86-1.39-4.36-1.45-6.68-1.42a32.93,32.93,0,0,1,8.26,0,13.48,13.48,0,0,1,4.49,1.21A26.41,26.41,0,0,1,303,289a8.22,8.22,0,0,0,4.94,2.19Z" transform="translate(-111.14 -276.53)"/><path class="cls-1" d="M314.14,287.35c-3.33.8-7.22.48-9.64-1.94a28.91,28.91,0,0,0-2.72-3c-1.62-1.21-3.8-1.26-5.83-1.24a28.72,28.72,0,0,1,7.2,0,11.76,11.76,0,0,1,3.92,1.06,23,23,0,0,1,3.82,2.9A7.17,7.17,0,0,0,315.2,287Z" transform="translate(-111.14 -276.53)"/><path class="cls-1" d="M320.24,288.07c1.08.94,2.73,1.3,3.84,2.21,2.14,1.75,2.43,5.1,4.6,6.8a9.11,9.11,0,0,0,3.49,1.41,13.4,13.4,0,0,1-7.76-2.79A10.15,10.15,0,0,1,320.24,288.07Z" transform="translate(-111.14 -276.53)"/><path class="cls-1" d="M319.79,291a8.31,8.31,0,0,0,3.66,6c1.66,1.09,3.67,1.55,5.31,2.66a7.84,7.84,0,0,1,2.86,3.59,41.63,41.63,0,0,1-4.85-2.12A5.42,5.42,0,0,1,327,306l-2.86-2.67a15.86,15.86,0,0,1-1.68-1.73c-2-2.57-2.6-7.33-2.67-10.6Z" transform="translate(-111.14 -276.53)"/><path class="cls-1" d="M319.33,288.07c-1.08.94-2.73,1.31-3.83,2.22-2.13,1.76-2.41,5.11-4.58,6.81a9.11,9.11,0,0,1-3.48,1.42,13.4,13.4,0,0,0,7.75-2.82A10.15,10.15,0,0,0,319.33,288.07Z" transform="translate(-111.14 -276.53)"/><path class="cls-1" d="M319.79,291a8.31,8.31,0,0,1-3.64,6c-1.66,1.09-3.67,1.56-5.31,2.68a7.84,7.84,0,0,0-2.85,3.59,41.62,41.62,0,0,0,4.85-2.13,5.42,5.42,0,0,0-.21,4.87l2.85-2.68a15.86,15.86,0,0,0,1.67-1.74c2-2.58,2.57-7.34,2.63-10.61Z" transform="translate(-111.14 -276.53)"/><path class="cls-1" d="M286.58,297l.52,0c.34,0,.84,0,1.47-.09s1.37-.12,2.23-.28,1.82-.31,2.86-.51,2.16-.51,3.33-.85,2.39-.74,3.67-1.16l1.93-.65,2-.74a30.89,30.89,0,0,0,3.86-1.85,30.17,30.17,0,0,0,3.58-2.36,21.11,21.11,0,0,0,3.09-2.73c.89-1,1.74-1.93,2.51-2.88a28.67,28.67,0,0,1,2.35-2.64,14.9,14.9,0,0,1,2.38-1.93,11.36,11.36,0,0,1,2.13-1,8.53,8.53,0,0,1,1.47-.38l.52-.08,0,.14-.46.25-.55.29c-.21.13-.44.29-.7.44s-.53.37-.83.58l-.91.76a26.49,26.49,0,0,0-2,2c-.7.78-1.44,1.68-2.3,2.59a26.83,26.83,0,0,1-2.88,2.75,19.88,19.88,0,0,1-1.73,1.21c-.59.39-1.17.79-1.79,1.16-1.21.76-2.45,1.51-3.71,2.24s-2.51,1.45-3.76,2.16-2.53,1.32-3.79,1.86a28.57,28.57,0,0,1-3.75,1.25c-.61.14-1.21.31-1.79.42l-1.69.29a27.71,27.71,0,0,1-3,.25,20.13,20.13,0,0,1-2.32-.05c-1.26-.12-2-.25-2-.25Z" transform="translate(-111.14 -276.53)"/><path class="cls-1" d="M353.3,296.77s-.71.14-2,.26a20.11,20.11,0,0,1-2.32.06,27.69,27.69,0,0,1-3-.24l-1.69-.29c-.58-.11-1.17-.27-1.79-.42a28.57,28.57,0,0,1-3.76-1.24c-1.26-.54-2.53-1.17-3.8-1.84s-2.51-1.42-3.77-2.15-2.5-1.47-3.71-2.23c-.62-.36-1.2-.77-1.79-1.15a19.89,19.89,0,0,1-1.73-1.2,26.84,26.84,0,0,1-2.89-2.74c-.87-.9-1.6-1.8-2.31-2.58a26.47,26.47,0,0,0-2-2l-.91-.76c-.3-.21-.57-.42-.83-.58s-.5-.31-.7-.44l-.55-.29-.46-.25,0-.14.52.08a8.54,8.54,0,0,1,1.47.37,11.36,11.36,0,0,1,2.14,1,14.92,14.92,0,0,1,2.39,1.92,28.68,28.68,0,0,1,2.35,2.63c.77,1,1.62,1.93,2.52,2.88a21.1,21.1,0,0,0,3.1,2.72,30.16,30.16,0,0,0,3.58,2.35,30.89,30.89,0,0,0,3.87,1.84l2,.74,1.94.64c1.27.41,2.5.8,3.67,1.15s2.3.6,3.33.84,2,.39,2.87.5,1.61.18,2.23.27,1.13.05,1.47.09l.52,0Z" transform="translate(-111.14 -276.53)"/><path class="cls-1" d="M347.56,296.72a27.08,27.08,0,0,0,15-2.12c4.73-2.07,9-5,13.82-7s10.3-2.92,15-.89a30.22,30.22,0,0,0-32.95.57c-4.51,3.15-10.14,8.77-15.6,8.08.56.33,1.92.67,2.48,1C345.38,296.41,347,296.62,347.56,296.72Z" transform="translate(-111.14 -276.53)"/><path class="cls-1" d="M333.29,291.52c3.82.9,8.28.53,11-2.26,1.09-1.1,1.87-2.52,3.11-3.46,1.85-1.4,4.35-1.46,6.67-1.44a32.93,32.93,0,0,0-8.26,0,13.48,13.48,0,0,0-4.49,1.23,26.41,26.41,0,0,0-4.36,3.34,8.22,8.22,0,0,1-4.93,2.2Z" transform="translate(-111.14 -276.53)"/><path class="cls-1" d="M325.84,287.33c3.34.79,7.22.46,9.64-2a28.93,28.93,0,0,1,2.71-3c1.61-1.22,3.8-1.27,5.82-1.26a28.72,28.72,0,0,0-7.2,0,11.76,11.76,0,0,0-3.92,1.07,23,23,0,0,0-3.81,2.92,7.17,7.17,0,0,1-4.3,1.92Z" transform="translate(-111.14 -276.53)"/><path class="cls-1" d="M319.8,299.23s2.44,4.4,0,8.61Z" transform="translate(-111.14 -276.53)"/><path class="cls-1" d="M319.8,299.23s-2.42,4.4,0,8.61Z" transform="translate(-111.14 -276.53)"/><polygon class="cls-1" points="138.94 7.3 2.76 7.51 2.77 9.5 132.46 9.29 138.94 7.3"/><circle class="cls-1" cx="114.77" cy="285.55" r="3.62" transform="translate(-111.59 -276.35) rotate(-0.09)"/><polygon class="cls-1" points="278.75 7.08 414.92 6.87 414.92 8.85 285.23 9.06 278.75 7.08"/><circle class="cls-1" cx="525.21" cy="284.91" r="3.62" transform="translate(-111.59 -275.71) rotate(-0.09)"/></svg>