<svg id="Layer_1" data-name="Layer 1" xmlns="http://www.w3.org/2000/svg" viewBox="0 0 201.04 30.64"><defs><style>.cls-1{fill:#038c01;}.cls-2{fill:none;stroke:#038c01;stroke-linecap:round;stroke-miterlimit:10;stroke-width:1.21px;}</style></defs><title>1_green</title><g id="_Group_" data-name="&lt;Group&gt;"><g id="_Group_2" data-name="&lt;Group&gt;"><path class="cls-1" d="M319.55,241c.19,2.42.31,4.84.42,7.26a31.16,31.16,0,0,1,.12,3.63,18.06,18.06,0,0,1-.54,3.63.06.06,0,0,1-.12,0,18.05,18.05,0,0,1-.54-3.63,31.15,31.15,0,0,1,.12-3.63c.11-2.42.24-4.84.42-7.26a.06.06,0,0,1,.12,0Z" transform="translate(-218.97 -224.91)"/></g><g id="_Group_3" data-name="&lt;Group&gt;"><path class="cls-1" d="M321.12,240.46a20.71,20.71,0,0,0,3.2,2.59,16.51,16.51,0,0,0,3.77,1.61,5.24,5.24,0,0,1-4.4-.58A5.56,5.56,0,0,1,321.12,240.46Z" transform="translate(-218.97 -224.91)"/></g><g id="_Group_4" data-name="&lt;Group&gt;"><path class="cls-1" d="M317.85,240.46a5.56,5.56,0,0,1-2.56,3.62,5.24,5.24,0,0,1-4.4.58,16.51,16.51,0,0,0,3.77-1.61A20.7,20.7,0,0,0,317.85,240.46Z" transform="translate(-218.97 -224.91)"/></g><g id="_Group_5" data-name="&lt;Group&gt;"><path id="_Path_" data-name="&lt;Path&gt;" class="cls-2" d="M319.49,238.7s-3.55-12.9-16.58-12.9-10.62,7.93-7.19,7.8c2.49-.1,2.49-2.69,1.55-4" transform="translate(-218.97 -224.91)"/><path id="_Path_2" data-name="&lt;Path&gt;" class="cls-2" d="M319.49,233.93a20.26,20.26,0,0,0-7.88-8.41" transform="translate(-218.97 -224.91)"/><path id="_Path_3" data-name="&lt;Path&gt;" class="cls-2" d="M291.24,225.52H242.95c-7.12,0-11.86,9.7-5.38,14,6.32,4.17,12.77-2.82,10.08-7.66-2.29-4.13-8.6-.94-5.78,2.89" transform="translate(-218.97 -224.91)"/><path id="_Path_4" data-name="&lt;Path&gt;" class="cls-2" d="M242.95,225.52s-8.06-.26-12.89,5.39-10.48,2.82-10.48-1.08c0-3.49,3.74-5.16,7-3.63,2.28,1.08,1.34,5.11-1.34,5" transform="translate(-218.97 -224.91)"/><line id="_Path_5" data-name="&lt;Path&gt;" class="cls-2" x1="41.2" y1="3.98" x2="71.17" y2="3.98"/><circle id="_Path_6" data-name="&lt;Path&gt;" class="cls-2" cx="38.02" cy="3.98" r="0.64"/><circle id="_Path_7" data-name="&lt;Path&gt;" class="cls-2" cx="316.14" cy="235.86" r="0.64" transform="translate(-147.18 320.56) rotate(-88.44)"/><circle id="_Path_8" data-name="&lt;Path&gt;" class="cls-2" cx="313.75" cy="233.17" r="0.64" transform="translate(-146.81 315.57) rotate(-88.44)"/><circle id="_Path_9" data-name="&lt;Path&gt;" class="cls-2" cx="311.34" cy="230.72" r="0.64" transform="translate(-146.72 310.77) rotate(-88.44)"/><circle id="_Path_10" data-name="&lt;Path&gt;" class="cls-2" cx="34.94" cy="3.98" r="0.64"/></g><g id="_Group_6" data-name="&lt;Group&gt;"><path id="_Path_11" data-name="&lt;Path&gt;" class="cls-2" d="M319.49,238.7s3.55-12.9,16.58-12.9,10.62,7.93,7.19,7.8c-2.49-.1-2.49-2.69-1.55-4" transform="translate(-218.97 -224.91)"/><path id="_Path_12" data-name="&lt;Path&gt;" class="cls-2" d="M319.49,233.93a20.26,20.26,0,0,1,7.88-8.41" transform="translate(-218.97 -224.91)"/><path id="_Path_13" data-name="&lt;Path&gt;" class="cls-2" d="M347.73,225.52H396c7.12,0,11.86,9.7,5.38,14-6.32,4.17-12.77-2.82-10.08-7.66,2.29-4.13,8.6-.94,5.78,2.89" transform="translate(-218.97 -224.91)"/><path id="_Path_14" data-name="&lt;Path&gt;" class="cls-2" d="M396,225.52s8.06-.26,12.89,5.39,10.48,2.82,10.48-1.08c0-3.49-3.74-5.16-7-3.63-2.28,1.08-1.34,5.11,1.34,5" transform="translate(-218.97 -224.91)"/><line id="_Path_15" data-name="&lt;Path&gt;" class="cls-2" x1="159.85" y1="3.98" x2="129.87" y2="3.98"/><circle id="_Path_16" data-name="&lt;Path&gt;" class="cls-2" cx="163.03" cy="3.98" r="0.64"/><circle id="_Path_17" data-name="&lt;Path&gt;" class="cls-2" cx="322.84" cy="235.86" r="0.64" transform="translate(-225.25 -216.06) rotate(-1.56)"/><circle id="_Path_18" data-name="&lt;Path&gt;" class="cls-2" cx="325.22" cy="233.17" r="0.64" transform="translate(-225.18 -216) rotate(-1.56)"/><circle id="_Path_19" data-name="&lt;Path&gt;" class="cls-2" cx="327.64" cy="230.72" r="0.64" transform="translate(-225.11 -215.93) rotate(-1.56)"/><circle id="_Path_20" data-name="&lt;Path&gt;" class="cls-2" cx="166.1" cy="3.98" r="0.64"/></g><circle id="_Path_21" data-name="&lt;Path&gt;" class="cls-2" cx="100.52" cy="2.5" r="1.48"/></g></svg>